<svg id="Capa_1" enable-background="new 0 0 512 512" height="512" viewBox="0 0 512 512" width="512" xmlns="http://www.w3.org/2000/svg"><g><path d="m406 391v91h-391c-8.401 0-15-6.601-15-15v-61c0-8.401 6.599-15 15-15z" fill="#9ef"/><path d="m256 391h150v91h-150z" fill="#5cc3e6"/><path d="m497 0h-482c-8.401 0-15 6.599-15 15v241c0 8.399 6.599 15 15 15h482c8.401 0 15-6.601 15-15v-241c0-8.401-6.599-15-15-15z" fill="#3d6dcc"/><path d="m512 15v241c0 8.399-6.599 15-15 15h-241v-271h241c8.401 0 15 6.599 15 15z" fill="#2e3e99"/><path d="m512 467v-61c0-8.291-6.709-15-15-15h-91v91h91c8.291 0 15-6.709 15-15z" fill="#cce6ff"/><path d="m406 512c-8.291 0-15-6.709-15-15v-121c0-8.291 6.709-15 15-15s15 6.709 15 15v121c0 8.291-6.709 15-15 15z" fill="#2e3e99"/><path d="m406 151c-24.814 0-45-20.186-45-45s20.186-46 45-46 45 21.186 45 46-20.186 45-45 45z" fill="#fb3"/><path d="m451 196c0-8.291-6.709-15-15-15h-60c-8.291 0-15 6.709-15 15v45h90z" fill="#b58dff"/><path d="m316 91h-30c-10.453 0-20.502 1.609-30 4.492-27.308 8.289-49.858 27.523-62.844 52.522-13.767-16.37-34.134-27.014-57.156-27.014-41.367 0-76 33.647-76 75 0 8.291 6.709 15 15 15s15-6.709 15-15c0-24.814 21.186-45 46-45s45 20.186 45 45c0 8.291 6.709 15 15 15s15-6.709 15-15c0-30.677 18.554-57.041 45-68.646 9.201-4.037 19.321-6.354 30-6.354h30c8.291 0 15-6.709 15-15s-6.709-15-15-15z" fill="#e6f3ff"/><path d="m316 121c8.291 0 15-6.709 15-15s-6.709-15-15-15h-30c-10.453 0-20.502 1.609-30 4.492v31.862c9.201-4.037 19.321-6.354 30-6.354z" fill="#cce6ff"/><path d="m406 391c-3.838 0-7.676-1.465-10.605-4.395l-30-30c-2.813-2.812-4.395-6.621-4.395-10.605v-30c0-8.291 6.709-15 15-15h60c8.291 0 15 6.709 15 15v30c0 3.984-1.582 7.793-4.395 10.605l-30 30c-2.929 2.93-6.767 4.395-10.605 4.395z" fill="#2e3e99"/></g></svg>